<svg width="15" height="21" viewBox="0 0 15 21" fill="none" xmlns="http://www.w3.org/2000/svg">
<path d="M14.4134 0H0.586755C0.26271 0 0 0.26271 0 0.586755V17.7128C0 17.8684 0.0618442 18.0177 0.171841 18.1277L1.90019 19.8561C2.12933 20.0852 2.50083 20.0852 2.73002 19.8561L4.04345 18.5426L5.3568 19.8561C5.46684 19.9661 5.61607 20.0279 5.77167 20.0279C5.92728 20.0279 6.07655 19.9661 6.18659 19.8561L7.49998 18.5426L8.81341 19.8561C8.92345 19.9661 9.07272 20.0279 9.22829 20.0279C9.38389 20.0279 9.53316 19.9661 9.6432 19.8561L10.9566 18.5426L12.27 19.8561C12.3846 19.9706 12.5347 20.0279 12.6849 20.0279C12.835 20.0279 12.9852 19.9706 13.0998 19.8561L14.8281 18.1277C14.9382 18.0177 15 17.8685 15 17.7128V0.586755C15.0001 0.26271 14.7374 0 14.4134 0ZM6.91319 4.40735V3.72918C6.91319 3.40513 7.17594 3.14243 7.49994 3.14243C7.82403 3.14243 8.0867 3.40513 8.0867 3.72918V4.39937H8.75697C9.08097 4.39937 9.34372 4.66208 9.34372 4.98613C9.34372 5.31017 9.08097 5.57288 8.75697 5.57288H7.08104C6.7115 5.57288 6.41085 5.87354 6.41085 6.24307C6.41085 6.61265 6.7115 6.91334 7.08104 6.91334H7.91904C8.93565 6.91334 9.76278 7.74039 9.76278 8.75704C9.76278 9.71709 9.02503 10.5078 8.0867 10.5928V11.271C8.0867 11.595 7.82403 11.8577 7.49994 11.8577C7.17594 11.8577 6.91319 11.595 6.91319 11.271V10.6007H6.24299C5.91899 10.6007 5.65624 10.338 5.65624 10.014C5.65624 9.68991 5.91899 9.4272 6.24299 9.4272H7.91904C8.28858 9.4272 8.58927 9.12654 8.58927 8.75701C8.58927 8.38747 8.28862 8.08681 7.91904 8.08681H7.08104C6.06439 8.08681 5.23734 7.25969 5.23734 6.24303C5.23738 5.28302 5.975 4.49243 6.91319 4.40735ZM10.6424 15.0001H4.35763C4.03359 15.0001 3.77088 14.7374 3.77088 14.4133C3.77088 14.0893 4.03359 13.8266 4.35763 13.8266H10.6424C10.9665 13.8266 11.2292 14.0893 11.2292 14.4133C11.2292 14.7374 10.9665 15.0001 10.6424 15.0001Z" fill="url(#paint0_linear_6848_8534)"/>
<defs>
<linearGradient id="paint0_linear_6848_8534" x1="9.75257" y1="17.5629" x2="1.5269" y2="3.66037" gradientUnits="userSpaceOnUse">
<stop stop-color="#E60C84"/>
<stop offset="1" stop-color="#FFCF4B"/>
</linearGradient>
</defs>
</svg>
