<svg width="34" height="26" viewBox="0 0 34 26" fill="none" xmlns="http://www.w3.org/2000/svg">
<path d="M31.6955 0.727051H2.5779C1.50578 0.727051 0.636719 1.59612 0.636719 2.66823V23.18C0.636719 24.2521 1.50578 25.1212 2.5779 25.1212H31.6955C32.7677 25.1212 33.6367 24.2521 33.6367 23.18V2.66823C33.6367 1.59612 32.7677 0.727051 31.6955 0.727051Z" fill="url(#paint0_linear_6978_7737)"/>
<path d="M31.6947 25.1212H19.8535V0.727051H31.6947C32.7668 0.727051 33.6359 1.59612 33.6359 2.66823V23.18C33.6359 24.2521 32.7668 25.1212 31.6947 25.1212Z" fill="url(#paint1_linear_6978_7737)"/>
<path d="M31.6955 25.1209H2.5779C1.50578 25.1209 0.636719 24.2518 0.636719 23.1797V4.69287H33.6367V23.1797C33.6367 24.2518 32.7677 25.1209 31.6955 25.1209Z" fill="url(#paint2_linear_6978_7737)"/>
<path d="M33.0586 24.5622L17.221 8.72461L10.5312 15.4144L20.238 25.1212H31.696C32.2271 25.1212 32.7082 24.9077 33.0586 24.5622Z" fill="url(#paint3_linear_6978_7737)"/>
<path d="M33.6373 23.1798V18.8742L22.7616 7.99854L18.4355 21.9021L21.6545 25.121H31.6961C32.7682 25.121 33.6373 24.2519 33.6373 23.1798Z" fill="url(#paint4_linear_6978_7737)"/>
<path d="M31.6947 25.1209H19.8535V4.69287H33.6359V23.1797C33.6359 24.2518 32.7668 25.1209 31.6947 25.1209Z" fill="url(#paint5_linear_6978_7737)"/>
<path d="M33.6368 23.1802V17.3232L30.649 14.3354L23.8945 21.09L27.926 25.1214H31.6956C32.7677 25.1214 33.6368 24.2523 33.6368 23.1802Z" fill="url(#paint6_linear_6978_7737)"/>
<path d="M0.636719 22.1445V23.1798C0.636719 24.2519 1.50578 25.121 2.5779 25.121H31.6955C32.7677 25.121 33.6367 24.2519 33.6367 23.1798V22.1445H0.636719Z" fill="url(#paint7_linear_6978_7737)"/>
<path d="M4.00887 16.2375H9.17699C9.52058 16.2375 9.79914 15.9589 9.79914 15.6153C9.79914 15.2717 9.52058 14.9932 9.17699 14.9932H4.00887C3.66521 14.9932 3.38672 15.2717 3.38672 15.6153C3.38672 15.9589 3.66528 16.2375 4.00887 16.2375Z" fill="url(#paint8_linear_6978_7737)"/>
<path d="M4.00887 13.9875H6.05791C6.40149 13.9875 6.68005 13.7089 6.68005 13.3653C6.68005 13.0217 6.40149 12.7432 6.05791 12.7432H4.00887C3.66521 12.7432 3.38672 13.0217 3.38672 13.3653C3.38672 13.7089 3.66528 13.9875 4.00887 13.9875Z" fill="url(#paint9_linear_6978_7737)"/>
<path d="M4.00887 8.62076H6.05791C6.40149 8.62076 6.68005 8.3422 6.68005 7.99861C6.68005 7.65496 6.40149 7.37646 6.05791 7.37646H4.00887C3.66521 7.37646 3.38672 7.65502 3.38672 7.99861C3.38672 8.3422 3.66528 8.62076 4.00887 8.62076Z" fill="url(#paint10_linear_6978_7737)"/>
<path d="M7.95808 13.9875H9.16588C9.50954 13.9875 9.78803 13.7089 9.78803 13.3653C9.78803 13.0217 9.50947 12.7432 9.16588 12.7432H7.95808C7.6145 12.7432 7.33594 13.0217 7.33594 13.3653C7.33594 13.709 7.6145 13.9875 7.95808 13.9875Z" fill="url(#paint11_linear_6978_7737)"/>
<path d="M9.16533 21.1934H7.11629C6.7727 21.1934 6.49414 21.4719 6.49414 21.8155C6.49414 22.1591 6.7727 22.4377 7.11629 22.4377H9.16533C9.50898 22.4377 9.78748 22.1591 9.78748 21.8155C9.78748 21.4719 9.50892 21.1934 9.16533 21.1934Z" fill="url(#paint12_linear_6978_7737)"/>
<path d="M5.21667 21.1934H4.00887C3.66521 21.1934 3.38672 21.4719 3.38672 21.8155C3.38672 22.1592 3.66528 22.4377 4.00887 22.4377H5.21667C5.56025 22.4377 5.83881 22.1592 5.83881 21.8155C5.83881 21.4719 5.56032 21.1934 5.21667 21.1934Z" fill="url(#paint13_linear_6978_7737)"/>
<path d="M5.21667 2.21582H4.00887C3.66521 2.21582 3.38672 2.49438 3.38672 2.83797C3.38672 3.18156 3.66528 3.46011 4.00887 3.46011H5.21667C5.56025 3.46011 5.83881 3.18156 5.83881 2.83797C5.83881 2.49431 5.56025 2.21582 5.21667 2.21582Z" fill="url(#paint14_linear_6978_7737)"/>
<path d="M8.5819 2.21582H7.3741C7.03045 2.21582 6.75195 2.49438 6.75195 2.83797C6.75195 3.18156 7.03051 3.46011 7.3741 3.46011H8.5819C8.92549 3.46011 9.20405 3.18156 9.20405 2.83797C9.20405 2.49431 8.92549 2.21582 8.5819 2.21582Z" fill="url(#paint15_linear_6978_7737)"/>
<path d="M11.9452 2.21582H10.7374C10.3937 2.21582 10.1152 2.49438 10.1152 2.83797C10.1152 3.18156 10.3938 3.46011 10.7374 3.46011H11.9452C12.2888 3.46011 12.5673 3.18156 12.5673 2.83797C12.5673 2.49431 12.2888 2.21582 11.9452 2.21582Z" fill="url(#paint16_linear_6978_7737)"/>
<path d="M16.648 21.3263C16.441 21.3263 16.234 21.2473 16.076 21.0894L10.4654 15.4787C10.1496 15.1628 10.1496 14.6508 10.4654 14.3349L16.076 8.72423C16.3919 8.40833 16.904 8.40833 17.2199 8.72423C17.5357 9.04005 17.5357 9.5522 17.2199 9.8681L12.1811 14.9069L17.2199 19.9456C17.5357 20.2615 17.5357 20.7736 17.2199 21.0895C17.062 21.2473 16.855 21.3263 16.648 21.3263Z" fill="white"/>
<path d="M24.4651 21.3264C24.2581 21.3264 24.0511 21.2475 23.8931 21.0895C23.5773 20.7737 23.5773 20.2615 23.8931 19.9456L28.9319 14.9069L23.8931 9.8681C23.5773 9.55227 23.5773 9.04012 23.8931 8.72423C24.209 8.40833 24.7211 8.40833 25.037 8.72423L30.6476 14.3349C30.9635 14.6508 30.9635 15.1628 30.6476 15.4787L25.037 21.0894C24.879 21.2475 24.6721 21.3264 24.4651 21.3264Z" fill="white"/>
<path d="M18.9835 22.116C18.9195 22.116 18.8545 22.1084 18.7896 22.0924C18.3558 21.9857 18.0907 21.5476 18.1974 21.1137L21.3465 8.31348C21.4532 7.87976 21.8912 7.61479 22.3252 7.72129C22.7589 7.82799 23.024 8.26618 22.9173 8.69997L19.7683 21.5002C19.6775 21.8691 19.347 22.116 18.9835 22.116Z" fill="white"/>
<defs>
<linearGradient id="paint0_linear_6978_7737" x1="15.9306" y1="0.86261" x2="16.3188" y2="4.74477" gradientUnits="userSpaceOnUse">
<stop stop-color="#F9F5F3"/>
<stop offset="1" stop-color="#EFE2DD"/>
</linearGradient>
<linearGradient id="paint1_linear_6978_7737" x1="30.2065" y1="12.9241" x2="33.83" y2="12.9241" gradientUnits="userSpaceOnUse">
<stop stop-color="#9E9797" stop-opacity="0"/>
<stop offset="0.3562" stop-color="#9B9494" stop-opacity="0.356"/>
<stop offset="0.6285" stop-color="#928B8B" stop-opacity="0.629"/>
<stop offset="0.872" stop-color="#827A7A" stop-opacity="0.872"/>
<stop offset="1" stop-color="#766E6E"/>
</linearGradient>
<linearGradient id="paint2_linear_6978_7737" x1="10.8029" y1="8.00445" x2="29.7675" y2="26.9691" gradientUnits="userSpaceOnUse">
<stop stop-color="#C9F6B0"/>
<stop offset="1" stop-color="#0BB494"/>
</linearGradient>
<linearGradient id="paint3_linear_6978_7737" x1="16.7532" y1="15.3332" x2="12.2885" y2="11.742" gradientUnits="userSpaceOnUse">
<stop stop-color="#016A74" stop-opacity="0"/>
<stop offset="1" stop-color="#016A74"/>
</linearGradient>
<linearGradient id="paint4_linear_6978_7737" x1="23.9656" y1="17.347" x2="17.7538" y2="14.5646" gradientUnits="userSpaceOnUse">
<stop stop-color="#016A74" stop-opacity="0"/>
<stop offset="1" stop-color="#016A74"/>
</linearGradient>
<linearGradient id="paint5_linear_6978_7737" x1="29.9476" y1="14.9069" x2="33.3123" y2="14.9069" gradientUnits="userSpaceOnUse">
<stop stop-color="#016A74" stop-opacity="0"/>
<stop offset="1" stop-color="#016A74"/>
</linearGradient>
<linearGradient id="paint6_linear_6978_7737" x1="29.9366" y1="20.3775" x2="26.9386" y2="17.3796" gradientUnits="userSpaceOnUse">
<stop stop-color="#016A74" stop-opacity="0"/>
<stop offset="1" stop-color="#016A74"/>
</linearGradient>
<linearGradient id="paint7_linear_6978_7737" x1="17.1367" y1="23.5183" x2="17.1367" y2="25.5182" gradientUnits="userSpaceOnUse">
<stop stop-color="#016A74" stop-opacity="0"/>
<stop offset="1" stop-color="#016A74"/>
</linearGradient>
<linearGradient id="paint8_linear_6978_7737" x1="-9.53996" y1="3.69734" x2="22.779" y2="27.5726" gradientUnits="userSpaceOnUse">
<stop stop-color="#016A74" stop-opacity="0"/>
<stop offset="1" stop-color="#016A74"/>
</linearGradient>
<linearGradient id="paint9_linear_6978_7737" x1="-9.01526" y1="2.987" x2="23.3037" y2="26.8623" gradientUnits="userSpaceOnUse">
<stop stop-color="#016A74" stop-opacity="0"/>
<stop offset="1" stop-color="#016A74"/>
</linearGradient>
<linearGradient id="paint10_linear_6978_7737" x1="-6.45045" y1="-0.485039" x2="25.8685" y2="23.3903" gradientUnits="userSpaceOnUse">
<stop stop-color="#016A74" stop-opacity="0"/>
<stop offset="1" stop-color="#016A74"/>
</linearGradient>
<linearGradient id="paint11_linear_6978_7737" x1="-7.76932" y1="1.3007" x2="24.5497" y2="25.176" gradientUnits="userSpaceOnUse">
<stop stop-color="#016A74" stop-opacity="0"/>
<stop offset="1" stop-color="#016A74"/>
</linearGradient>
<linearGradient id="paint12_linear_6978_7737" x1="-11.957" y1="6.9685" x2="20.3619" y2="30.8438" gradientUnits="userSpaceOnUse">
<stop stop-color="#016A74" stop-opacity="0"/>
<stop offset="1" stop-color="#016A74"/>
</linearGradient>
<linearGradient id="paint13_linear_6978_7737" x1="-13.2023" y1="8.6548" x2="19.1166" y2="32.5301" gradientUnits="userSpaceOnUse">
<stop stop-color="#016A74" stop-opacity="0"/>
<stop offset="1" stop-color="#016A74"/>
</linearGradient>
<linearGradient id="paint14_linear_6978_7737" x1="4.11641" y1="1.84512" x2="4.95758" y2="3.52747" gradientUnits="userSpaceOnUse">
<stop stop-color="#D9B1EE"/>
<stop offset="0.1228" stop-color="#DBA3E3"/>
<stop offset="0.3507" stop-color="#E381C8"/>
<stop offset="0.6587" stop-color="#EF499B"/>
<stop offset="1" stop-color="#FE0364"/>
</linearGradient>
<linearGradient id="paint15_linear_6978_7737" x1="7.48164" y1="1.84512" x2="8.32282" y2="3.52747" gradientUnits="userSpaceOnUse">
<stop stop-color="#FEF48B"/>
<stop offset="1" stop-color="#FFBF51"/>
</linearGradient>
<linearGradient id="paint16_linear_6978_7737" x1="10.8449" y1="1.84512" x2="11.6861" y2="3.52747" gradientUnits="userSpaceOnUse">
<stop stop-color="#C9F6B0"/>
<stop offset="1" stop-color="#0BB494"/>
</linearGradient>
</defs>
</svg>
