<svg width="12" height="12" viewBox="0 0 12 12" fill="#000" xmlns="http://www.w3.org/2000/svg">
<path fill-rule="evenodd" clip-rule="evenodd" d="M6 0.75C6.24162 0.75 6.4375 0.945875 6.4375 1.1875V5.5625H10.8125C11.0541 5.5625 11.25 5.75838 11.25 6C11.25 6.24162 11.0541 6.4375 10.8125 6.4375H6.4375V10.8125C6.4375 11.0541 6.24162 11.25 6 11.25C5.75837 11.25 5.5625 11.0541 5.5625 10.8125V6.4375H1.1875C0.945875 6.4375 0.75 6.24162 0.75 6C0.75 5.75838 0.945875 5.5625 1.1875 5.5625H5.5625V1.1875C5.5625 0.945875 5.75838 0.75 6 0.75Z" fill="#000"/>
</svg>
