<svg width="16" height="16" viewBox="0 0 16 16" fill="none" xmlns="http://www.w3.org/2000/svg">
<g id="Real world/trash-fill">
<path id="Subtract" d="M3.84615 2.8C3.37884 2.8 3 3.15817 3 3.6V4.4C3 4.84183 3.37884 5.2 3.84615 5.2H4.26923V12.4C4.26923 13.2837 5.0269 14 5.96154 14H11.0385C11.9731 14 12.7308 13.2837 12.7308 12.4V5.2H13.1538C13.6212 5.2 14 4.84183 14 4.4V3.6C14 3.15817 13.6212 2.8 13.1538 2.8H10.1923C10.1923 2.35817 9.81347 2 9.34615 2H7.65385C7.18653 2 6.80769 2.35817 6.80769 2.8H3.84615ZM6.38462 6C6.61827 6 6.80769 6.17909 6.80769 6.4V12C6.80769 12.2209 6.61827 12.4 6.38462 12.4C6.15096 12.4 5.96154 12.2209 5.96154 12L5.96154 6.4C5.96154 6.17909 6.15096 6 6.38462 6ZM8.5 6C8.73366 6 8.92308 6.17909 8.92308 6.4V12C8.92308 12.2209 8.73366 12.4 8.5 12.4C8.26634 12.4 8.07692 12.2209 8.07692 12V6.4C8.07692 6.17909 8.26634 6 8.5 6ZM11.0385 6.4V12C11.0385 12.2209 10.849 12.4 10.6154 12.4C10.3817 12.4 10.1923 12.2209 10.1923 12V6.4C10.1923 6.17909 10.3817 6 10.6154 6C10.849 6 11.0385 6.17909 11.0385 6.4Z" fill="#000"/>
</g>
</svg>
