<svg width="16" height="16" viewBox="0 0 16 16" fill="#000" xmlns="http://www.w3.org/2000/svg">
<path fill-rule="evenodd" clip-rule="evenodd" d="M8.00065 1.3335C8.36884 1.3335 8.66732 1.63197 8.66732 2.00016V8.39069L10.8626 6.19542C11.1229 5.93508 11.545 5.93508 11.8054 6.19542C12.0657 6.45577 12.0657 6.87788 11.8054 7.13823L8.47205 10.4716C8.21171 10.7319 7.7896 10.7319 7.52925 10.4716L4.19591 7.13823C3.93556 6.87788 3.93556 6.45577 4.19591 6.19542C4.45626 5.93508 4.87837 5.93508 5.13872 6.19542L7.33398 8.39069V2.00016C7.33398 1.63197 7.63246 1.3335 8.00065 1.3335ZM2.00065 9.3335C2.36884 9.3335 2.66732 9.63197 2.66732 10.0002V10.8002C2.66732 11.3712 2.66784 11.7594 2.69235 12.0595C2.71623 12.3517 2.75952 12.5012 2.81264 12.6055C2.94047 12.8564 3.14445 13.0603 3.39533 13.1882C3.4996 13.2413 3.64907 13.2846 3.94134 13.3085C4.2414 13.333 4.6296 13.3335 5.20065 13.3335H10.8007C11.3717 13.3335 11.7599 13.333 12.06 13.3085C12.3522 13.2846 12.5017 13.2413 12.606 13.1882C12.8569 13.0603 13.0608 12.8564 13.1887 12.6055C13.2418 12.5012 13.2851 12.3517 13.3089 12.0595C13.3335 11.7594 13.334 11.3712 13.334 10.8002V10.0002C13.334 9.63197 13.6325 9.3335 14.0006 9.3335C14.3688 9.3335 14.6673 9.63197 14.6673 10.0002V10.8277C14.6673 11.3644 14.6673 11.8073 14.6379 12.168C14.6072 12.5428 14.5415 12.8872 14.3767 13.2108C14.121 13.7126 13.7131 14.1205 13.2113 14.3762C12.8877 14.541 12.5433 14.6067 12.1685 14.6374C11.8077 14.6668 11.3648 14.6668 10.8282 14.6668H5.1731C4.63646 14.6668 4.19356 14.6668 3.83277 14.6374C3.45804 14.6067 3.11357 14.541 2.79001 14.3762C2.28824 14.1205 1.8803 13.7126 1.62463 13.2108C1.45977 12.8872 1.39406 12.5428 1.36345 12.168C1.33397 11.8072 1.33398 11.3643 1.33398 10.8277L1.33398 10.0002C1.33398 9.63197 1.63246 9.3335 2.00065 9.3335Z" fill="#000"/>
</svg>
