<svg width="36" height="34" viewBox="0 0 36 34" fill="none" xmlns="http://www.w3.org/2000/svg">
<path d="M30.1369 32.2148L2.82788 29.1881C1.51487 29.0426 0.568497 27.8603 0.713979 26.5473L3.22403 3.89967C3.36958 2.58666 4.55193 1.64022 5.86487 1.78577L33.1738 4.81245C34.4869 4.958 35.4333 6.14036 35.2877 7.4533L32.7777 30.1009C32.6322 31.4139 31.4499 32.3604 30.1369 32.2148Z" fill="url(#paint0_linear_5201_7156)"/>
<path d="M35.287 7.45336L34.2973 16.3852L32.0977 4.69336L33.1735 4.81251C34.4861 4.95778 35.4323 6.13999 35.287 7.45336Z" fill="url(#paint1_linear_5201_7156)"/>
<path d="M34.0499 28.0077L7.04734 33.0875C5.74908 33.3317 4.49861 32.4773 4.25437 31.179L0.0416661 8.78554C-0.202569 7.48728 0.651901 6.23681 1.95016 5.99257L28.9527 0.91276C30.251 0.668525 31.5014 1.523 31.7457 2.82125L35.9584 25.2147C36.2026 26.5131 35.3481 27.7635 34.0499 28.0077Z" fill="url(#paint2_linear_5201_7156)"/>
<path d="M32.3223 5.88574V28.3327L34.05 28.0077C35.3482 27.7634 36.2027 26.513 35.9585 25.2147L32.3223 5.88574Z" fill="url(#paint3_linear_5201_7156)"/>
<path d="M4.125 30.4956L4.25354 31.1789C4.49778 32.4772 5.74825 33.3316 7.04651 33.0874L20.8236 30.4956H4.125Z" fill="url(#paint4_linear_5201_7156)"/>
<path d="M29.9306 30.6356H2.45445C1.13339 30.6356 0.0625 29.5647 0.0625 28.2437V5.45738C0.0625 4.13632 1.13339 3.06543 2.45445 3.06543H29.9306C31.2516 3.06543 32.3225 4.13632 32.3225 5.45738V28.2437C32.3225 29.5647 31.2516 30.6356 29.9306 30.6356Z" fill="url(#paint5_linear_5201_7156)"/>
<path d="M27.6917 28.3881H4.69531C3.58969 28.3881 2.69336 27.4917 2.69336 26.3861V7.31494C2.69336 6.20932 3.58969 5.31299 4.69531 5.31299H27.6917C28.7973 5.31299 29.6936 6.20932 29.6936 7.31494V26.3861C29.6936 27.4917 28.7973 28.3881 27.6917 28.3881Z" fill="url(#paint6_linear_5201_7156)"/>
<path d="M17.7928 28.3883H4.69399C3.58816 28.3883 2.69141 27.4922 2.69141 26.3865V23.2601L6.01484 19.2205C7.11164 17.8861 9.15319 17.8861 10.2508 19.2205L12.3201 21.7362L17.7928 28.3883Z" fill="url(#paint7_linear_5201_7156)"/>
<path d="M29.6927 21.3592V26.3863C29.6927 27.4921 28.7959 28.3881 27.6901 28.3881H6.84766L12.3205 21.7361L19.0437 13.5632C20.1405 12.2296 22.1829 12.2296 23.2797 13.5632L29.6927 21.3592Z" fill="url(#paint8_linear_5201_7156)"/>
<path d="M9.68665 12.9866C11.2546 12.9866 12.5256 11.7155 12.5256 10.1476C12.5256 8.57965 11.2546 7.30859 9.68665 7.30859C8.11872 7.30859 6.84766 8.57965 6.84766 10.1476C6.84766 11.7155 8.11872 12.9866 9.68665 12.9866Z" fill="url(#paint9_linear_5201_7156)"/>
<defs>
<linearGradient id="paint0_linear_5201_7156" x1="9.19945" y1="6.00066" x2="29.5024" y2="31.3564" gradientUnits="userSpaceOnUse">
<stop stop-color="#FFA936"/>
<stop offset="0.4112" stop-color="#FF8548"/>
<stop offset="0.7781" stop-color="#FF6C54"/>
<stop offset="1" stop-color="#FF6359"/>
</linearGradient>
<linearGradient id="paint1_linear_5201_7156" x1="34.6227" y1="10.2249" x2="32.9246" y2="10.5995" gradientUnits="userSpaceOnUse">
<stop stop-color="#F82814" stop-opacity="0"/>
<stop offset="1" stop-color="#C0272D"/>
</linearGradient>
<linearGradient id="paint2_linear_5201_7156" x1="6.36952" y1="9.05355" x2="33.1952" y2="27.3813" gradientUnits="userSpaceOnUse">
<stop stop-color="#CDEC7A"/>
<stop offset="0.2157" stop-color="#B0E995"/>
<stop offset="0.5613" stop-color="#87E4BB"/>
<stop offset="0.8347" stop-color="#6EE1D2"/>
<stop offset="1" stop-color="#65E0DB"/>
</linearGradient>
<linearGradient id="paint3_linear_5201_7156" x1="34.7072" y1="17.1093" x2="31.8099" y2="17.1093" gradientUnits="userSpaceOnUse">
<stop stop-color="#CDEC7A" stop-opacity="0"/>
<stop offset="0.2354" stop-color="#9AD57D" stop-opacity="0.235"/>
<stop offset="0.6035" stop-color="#51B482" stop-opacity="0.604"/>
<stop offset="0.8679" stop-color="#239F85" stop-opacity="0.868"/>
<stop offset="1" stop-color="#119786"/>
</linearGradient>
<linearGradient id="paint4_linear_5201_7156" x1="12.4742" y1="31.9589" x2="12.4742" y2="30.2425" gradientUnits="userSpaceOnUse">
<stop stop-color="#CDEC7A" stop-opacity="0"/>
<stop offset="0.2354" stop-color="#9AD57D" stop-opacity="0.235"/>
<stop offset="0.6035" stop-color="#51B482" stop-opacity="0.604"/>
<stop offset="0.8679" stop-color="#239F85" stop-opacity="0.868"/>
<stop offset="1" stop-color="#119786"/>
</linearGradient>
<linearGradient id="paint5_linear_5201_7156" x1="6.23085" y1="6.88884" x2="29.198" y2="29.856" gradientUnits="userSpaceOnUse">
<stop stop-color="#F8F6FB"/>
<stop offset="1" stop-color="#EFDCFB"/>
</linearGradient>
<linearGradient id="paint6_linear_5201_7156" x1="7.9615" y1="6.14071" x2="30.3623" y2="35.2842" gradientUnits="userSpaceOnUse">
<stop stop-color="#18CEFB"/>
<stop offset="0.2969" stop-color="#2BB9F9"/>
<stop offset="0.7345" stop-color="#42A0F7"/>
<stop offset="1" stop-color="#4A97F6"/>
</linearGradient>
<linearGradient id="paint7_linear_5201_7156" x1="5.33536" y1="21.3438" x2="15.1491" y2="34.1116" gradientUnits="userSpaceOnUse">
<stop stop-color="#CDEC7A"/>
<stop offset="0.2154" stop-color="#B0E995" stop-opacity="0.784"/>
<stop offset="0.5604" stop-color="#87E4BB" stop-opacity="0.439"/>
<stop offset="0.8334" stop-color="#6EE1D2" stop-opacity="0.165"/>
<stop offset="0.9985" stop-color="#65E0DB" stop-opacity="0"/>
</linearGradient>
<linearGradient id="paint8_linear_5201_7156" x1="14.0347" y1="19.3632" x2="25.8708" y2="34.7619" gradientUnits="userSpaceOnUse">
<stop stop-color="#CDEC7A"/>
<stop offset="0.2157" stop-color="#B0E995"/>
<stop offset="0.5613" stop-color="#87E4BB"/>
<stop offset="0.8347" stop-color="#6EE1D2"/>
<stop offset="1" stop-color="#65E0DB"/>
</linearGradient>
<linearGradient id="paint9_linear_5201_7156" x1="8.27608" y1="8.3125" x2="12.1144" y2="13.3062" gradientUnits="userSpaceOnUse">
<stop stop-color="#FFD945"/>
<stop offset="0.3043" stop-color="#FFCD3E"/>
<stop offset="0.8558" stop-color="#FFAD2B"/>
<stop offset="1" stop-color="#FFA325"/>
</linearGradient>
</defs>
</svg>
