<svg width="20" height="21" viewBox="0 0 20 21" fill="none" xmlns="http://www.w3.org/2000/svg">
<g clip-path="url(#clip0_6437_39583)">
<path fill-rule="evenodd" clip-rule="evenodd" d="M5.7588 4.31291e-07H14.2414C15.0464 -1.23241e-05 15.7107 -2.28137e-05 16.2519 0.0441945C16.814 0.0901197 17.3307 0.188684 17.8161 0.435975C18.5687 0.819468 19.1806 1.43139 19.5641 2.18404C19.8114 2.66937 19.91 3.18608 19.9559 3.74818C20.0001 4.28937 20.0001 4.95372 20.0001 5.75868V11.2413C20.0001 12.0463 20.0001 12.7106 19.9559 13.2518C19.91 13.8139 19.8114 14.3306 19.5641 14.816C19.1806 15.5686 18.5687 16.1805 17.8161 16.564C17.3307 16.8113 16.814 16.9099 16.2519 16.9558C15.7107 17 15.0464 17 14.2414 17H11.6838C11.0197 17 10.8263 17.0047 10.6504 17.0408C10.4738 17.0771 10.303 17.137 10.1425 17.219C9.98255 17.3007 9.82859 17.4178 9.31 17.8327L6.89688 19.7632C6.7132 19.9102 6.52597 20.0601 6.36137 20.1689C6.20394 20.273 5.8987 20.4593 5.50172 20.4597C5.0449 20.4602 4.61276 20.2525 4.32778 19.8955C4.08012 19.5852 4.03492 19.2305 4.01785 19.0425C4 18.846 4.00005 18.6062 4.00009 18.371L4.0001 16.9918C3.60829 16.9789 3.27229 16.9461 2.96482 16.8637C1.58445 16.4938 0.506262 15.4156 0.136393 14.0353C-0.00070332 13.5236 -0.000383487 12.933 4.72167e-05 12.1376C7.16546e-05 12.0924 9.64501e-05 12.0465 9.64501e-05 12L9.59733e-05 5.7587C8.32179e-05 4.95373 7.27288e-05 4.28937 0.0442901 3.74818C0.0902153 3.18608 0.18878 2.66937 0.43607 2.18404C0.819564 1.43139 1.43149 0.819468 2.18413 0.435975C2.66947 0.188684 3.18617 0.0901197 3.74827 0.0441945C4.28947 -2.28137e-05 4.95383 -1.23241e-05 5.7588 4.31291e-07ZM3.91113 2.03755C3.47272 2.07337 3.24852 2.1383 3.09212 2.21799C2.71579 2.40973 2.40983 2.7157 2.21808 3.09202C2.13839 3.24842 2.07347 3.47262 2.03765 3.91104C2.00087 4.36113 2.0001 4.94342 2.0001 5.8V12C2.0001 12.9944 2.00869 13.2954 2.06824 13.5176C2.25318 14.2078 2.79227 14.7469 3.48246 14.9319C3.70474 14.9914 4.00574 15 5.0001 15C5.55238 15 6.0001 15.4477 6.0001 16V17.9194L8.06061 16.271C8.08335 16.2528 8.10578 16.2348 8.12793 16.2171C8.55 15.8791 8.86906 15.6237 9.23263 15.4379C9.55358 15.274 9.89522 15.1541 10.2483 15.0817C10.6482 14.9996 11.0569 14.9998 11.5976 15C11.626 15 11.6547 15 11.6838 15H14.2001C15.0567 15 15.639 14.9992 16.0891 14.9625C16.5275 14.9266 16.7517 14.8617 16.9081 14.782C17.2844 14.5903 17.5904 14.2843 17.7821 13.908C17.8618 13.7516 17.9267 13.5274 17.9625 13.089C17.9993 12.6389 18.0001 12.0566 18.0001 11.2V5.8C18.0001 4.94342 17.9993 4.36113 17.9625 3.91104C17.9267 3.47262 17.8618 3.24842 17.7821 3.09202C17.5904 2.7157 17.2844 2.40973 16.9081 2.21799C16.7517 2.1383 16.5275 2.07337 16.0891 2.03755C15.639 2.00078 15.0567 2 14.2001 2H5.8001C4.94352 2 4.36122 2.00078 3.91113 2.03755ZM4.0001 6.5C4.0001 5.94772 4.44781 5.5 5.0001 5.5H10.0001C10.5524 5.5 11.0001 5.94772 11.0001 6.5C11.0001 7.05229 10.5524 7.5 10.0001 7.5H5.0001C4.44781 7.5 4.0001 7.05229 4.0001 6.5ZM4.0001 10C4.0001 9.44772 4.44781 9 5.0001 9H13.0001C13.5524 9 14.0001 9.44772 14.0001 10C14.0001 10.5523 13.5524 11 13.0001 11H5.0001C4.44781 11 4.0001 10.5523 4.0001 10Z" fill="#000"/>
</g>
<path fill-rule="evenodd" clip-rule="evenodd" d="M14.2412 4.31292e-07H5.7586C4.95363 -1.23241e-05 4.28927 -2.28137e-05 3.74808 0.0441945C3.18598 0.0901197 2.66928 0.188684 2.18394 0.435975C1.43129 0.819468 0.81937 1.43139 0.435877 2.18404C0.188585 2.66937 0.0900211 3.18608 0.044096 3.74817C-0.000120163 4.28936 -0.000110626 4.95372 -9.72748e-05 5.75868V11.2413C-0.000110626 12.0463 -0.000120163 12.7106 0.044096 13.2518C0.0900211 13.8139 0.188585 14.3306 0.435877 14.816C0.81937 15.5686 1.43129 16.1805 2.18394 16.564C2.66928 16.8113 3.18598 16.9099 3.74808 16.9558C4.28927 17 4.95362 17 5.75858 17H8.31615C8.98027 17 9.17366 17.0047 9.34965 17.0408C9.52617 17.0771 9.69699 17.137 9.85746 17.219C10.0174 17.3007 10.1714 17.4178 10.69 17.8327L13.1031 19.7632C13.2868 19.9102 13.474 20.06 13.6386 20.1689C13.7961 20.273 14.1013 20.4593 14.4983 20.4597C14.9551 20.4602 15.3872 20.2525 15.6722 19.8955C15.9199 19.5852 15.9651 19.2305 15.9822 19.0425C16 18.846 16 18.6062 15.9999 18.371L15.9999 16.9918C16.3917 16.9789 16.7277 16.9461 17.0352 16.8637C18.4155 16.4938 19.4937 15.4156 19.8636 14.0353C20.0007 13.5236 20.0004 12.933 20 12.1376C19.9999 12.0924 19.9999 12.0465 19.9999 12L19.9999 5.7587C19.9999 4.95373 19.9999 4.28937 19.9557 3.74817C19.9098 3.18608 19.8112 2.66937 19.5639 2.18404C19.1804 1.43139 18.5685 0.819468 17.8159 0.435975C17.3305 0.188684 16.8138 0.0901197 16.2517 0.0441945C15.7105 -2.28137e-05 15.0462 -1.23241e-05 14.2412 4.31292e-07ZM16.0889 2.03755C16.5273 2.07337 16.7515 2.1383 16.9079 2.21799C17.2842 2.40973 17.5902 2.7157 17.7819 3.09202C17.8616 3.24842 17.9265 3.47262 17.9624 3.91104C17.9991 4.36113 17.9999 4.94342 17.9999 5.8V12C17.9999 12.9944 17.9913 13.2954 17.9318 13.5176C17.7468 14.2078 17.2077 14.7469 16.5175 14.9319C16.2953 14.9914 15.9943 15 14.9999 15C14.4476 15 13.9999 15.4477 13.9999 16V17.9194L11.9394 16.271C11.9166 16.2528 11.8942 16.2348 11.8721 16.2171C11.45 15.8791 11.1309 15.6237 10.7674 15.4379C10.4464 15.274 10.1048 15.1541 9.75173 15.0817C9.35179 14.9996 8.94306 14.9998 8.40236 15C8.374 15 8.34527 15 8.31615 15H5.7999C4.94332 15 4.36103 14.9992 3.91094 14.9624C3.47253 14.9266 3.24832 14.8617 3.09192 14.782C2.7156 14.5903 2.40964 14.2843 2.21789 13.908C2.1382 13.7516 2.07327 13.5274 2.03745 13.089C2.00068 12.6389 1.9999 12.0566 1.9999 11.2V5.8C1.9999 4.94342 2.00068 4.36113 2.03745 3.91104C2.07327 3.47262 2.1382 3.24842 2.21789 3.09202C2.40964 2.7157 2.7156 2.40973 3.09192 2.21799C3.24832 2.1383 3.47253 2.07337 3.91094 2.03755C4.36103 2.00078 4.94332 2 5.7999 2H14.1999C15.0565 2 15.6388 2.00078 16.0889 2.03755Z" fill="#000"/>
<defs>
<clipPath id="clip0_6437_39583">
<rect width="10" height="6" fill="#000" transform="matrix(-1 0 0 1 14 5)"/>
</clipPath>
</defs>
</svg>
