<svg width="16" height="24" viewBox="0 0 16 24" fill="none" xmlns="http://www.w3.org/2000/svg">
<path d="M12.291 15C11.8508 14.1389 9.56486 13.2797 8.78113 12.795C8.60105 12.6975 8.49608 12.525 8.49608 12.3225V11.235C8.49608 10.1475 7.61108 9.27002 6.52358 9.27002C5.43607 9.27002 4.55858 10.1475 4.55858 11.235V14.7C4.40106 14.7675 4.24355 14.865 4.09358 15C2.28276 16.5652 3.99951 19.4985 4.97121 20.7375C4.97108 20.7375 4.67105 22.365 4.67105 22.365C4.57685 22.8091 4.9529 23.2637 5.40613 23.25C5.40608 23.25 11.4661 23.25 11.4661 23.25C11.9116 23.2644 12.2779 22.8369 12.2161 22.4025C12.2161 22.4025 11.9536 20.505 11.9536 20.505C12.4276 20.1033 12.7443 19.5413 12.7336 18.9075C12.6721 17.8989 12.9758 15.8454 12.291 15ZM11.2336 18.9075C11.1878 19.4547 10.2894 19.6916 10.4161 20.34C10.4161 20.34 10.6111 21.75 10.6111 21.75H6.30605C6.34487 21.3263 6.70843 20.4459 6.35861 20.085C5.60105 19.125 4.58856 17.3925 4.79108 16.7025C4.88363 16.3964 4.96695 16.2683 5.10611 16.0575C5.56598 16.1962 6.07002 15.8084 6.05858 15.33V11.235C6.06288 10.6271 6.99305 10.6284 6.99608 11.235V12.3225C6.99608 13.08 7.41607 13.77 8.08354 14.1225L10.6036 15.435C10.851 15.5625 11.0311 15.765 11.136 16.005C11.324 16.2763 11.2003 18.5642 11.2336 18.9075Z" fill="url(#paint0_linear_6811_7776)"/>
<path d="M15.4477 14.25V3C15.4477 1.76249 14.4352 0.75 13.1977 0.75H2.80273C1.56526 0.75 0.552734 1.76249 0.552734 3V14.25C0.552734 15.405 1.43022 16.3575 2.54776 16.485C2.56273 16.3425 2.59276 16.2 2.63025 16.065C2.69108 15.7565 2.98579 15.2655 3.14775 15C3.2887 14.701 3.57576 14.4266 3.80775 14.265V11.235C3.80775 9.73499 5.02275 8.51998 6.52275 8.51998C8.02275 8.51998 9.24525 9.73499 9.24525 11.235V12.1875L11.6452 13.44C12.7767 14.0341 13.4877 15.2087 13.4827 16.4775C14.5852 16.3425 15.4477 15.39 15.4477 14.25ZM10.9102 8.00999H5.09023C4.10979 8.00697 4.10686 6.51324 5.09027 6.50999C5.09023 6.50999 10.9102 6.50999 10.9102 6.50999C11.8907 6.51297 11.8936 8.00674 10.9102 8.00999ZM10.9102 5.25H5.09023C4.10979 5.24698 4.10686 3.75325 5.09027 3.75C5.09023 3.75 10.9102 3.75 10.9102 3.75C11.8907 3.75298 11.8936 5.24675 10.9102 5.25Z" fill="url(#paint1_linear_6811_7776)"/>
<defs>
<linearGradient id="paint0_linear_6811_7776" x1="9.44321" y1="21.5297" x2="3.43594" y2="12.3659" gradientUnits="userSpaceOnUse">
<stop stop-color="#E60C84"/>
<stop offset="1" stop-color="#FFCF4B"/>
</linearGradient>
<linearGradient id="paint1_linear_6811_7776" x1="10.237" y1="14.5483" x2="4.57481" y2="2.45272" gradientUnits="userSpaceOnUse">
<stop stop-color="#E60C84"/>
<stop offset="1" stop-color="#FFCF4B"/>
</linearGradient>
</defs>
</svg>
